<?xml version="1.0" encoding="UTF-8"?>
<svg width="22px" height="24px" viewBox="0 0 22 24" version="1.1" xmlns="http://www.w3.org/2000/svg" xmlns:xlink="http://www.w3.org/1999/xlink">
    <!-- Generator: Sketch 47.1 (45422) - http://www.bohemiancoding.com/sketch -->
    <title>camera-4</title>
    <desc>Created with Sketch.</desc>
    <defs>
        <polygon id="path-1" points="0 24 24 24 24 0 0 0"></polygon>
    </defs>
    <g id="Page-1" stroke="none" stroke-width="1" fill="none" fill-rule="evenodd">
        <g id="camera-4" transform="translate(-1.000000, 0.000000)">
            <path d="M22.5,22 C22.5,22.828 21.828,23.5 21,23.5 L3,23.5 C2.172,23.5 1.5,22.828 1.5,22 L1.5,13 C1.5,12.171 2.172,11.5 3,11.5 L9,11.5 L11,9.5 L17,9.5 L19,11.5 L21,11.5 C21.828,11.5 22.5,12.171 22.5,13 L22.5,22 Z" id="Stroke-1" stroke="#808080" stroke-linejoin="round"></path>
            <path d="M3.5,11.5 L3.5,10.5 C3.5,9.947 3.947,9.5 4.5,9.5 L5.5,9.5 C6.053,9.5 6.5,9.947 6.5,10.5 L6.5,11.5" id="Stroke-3" stroke="#808080" stroke-linejoin="round"></path>
            <path d="M5,13.5 C5.828,13.5 6.5,14.172 6.5,15 C6.5,15.828 5.828,16.5 5,16.5 C4.172,16.5 3.5,15.828 3.5,15 C3.5,14.172 4.172,13.5 5,13.5 Z" id="Stroke-5" stroke="#808080" stroke-linejoin="round"></path>
            <path d="M14.5,14.5 C15.881,14.5 17,15.619 17,17 C17,18.381 15.881,19.5 14.5,19.5 C13.119,19.5 12,18.381 12,17 C12,15.619 13.119,14.5 14.5,14.5 Z" id="Stroke-7" stroke="#808080" stroke-linejoin="round"></path>
            <path d="M14.5,12.5 C16.985,12.5 19,14.515 19,17 C19,19.485 16.985,21.5 14.5,21.5 C12.015,21.5 10,19.485 10,17 C10,14.515 12.015,12.5 14.5,12.5 Z" id="Stroke-9" stroke="#808080" stroke-linejoin="round"></path>
            <mask id="mask-2" fill="white">
                <use xlink:href="#path-1"></use>
            </mask>
            <g id="Clip-12"></g>
            <polygon id="Stroke-11" stroke="#808080" stroke-linejoin="round" mask="url(#mask-2)" points="8.5 6.5 19.5 6.5 19.5 0.5 8.5 0.5"></polygon>
            <polygon id="Stroke-13" stroke="#808080" stroke-linejoin="round" mask="url(#mask-2)" points="10.5 4.5 17.5 4.5 17.5 2.5 10.5 2.5"></polygon>
            <path d="M10,6.5 L11,9.5" id="Stroke-14" stroke="#808080" stroke-linejoin="round" mask="url(#mask-2)"></path>
            <path d="M18,6.5 L17,9.5" id="Stroke-15" stroke="#808080" stroke-linejoin="round" mask="url(#mask-2)"></path>
        </g>
    </g>
</svg>