<svg width="136" height="45" viewBox="0 0 136 45" fill="none" xmlns="http://www.w3.org/2000/svg">
<path d="M125.17 0.00014625H10.8363C10.4195 0.00014625 10.0078 0.00014625 9.59213 0.00239624C9.24418 0.00464624 8.89901 0.0111825 8.54773 0.0166837C7.78457 0.0255732 7.02321 0.0920317 6.27027 0.215482C5.51838 0.341619 4.79004 0.579425 4.10989 0.920854C3.43057 1.26517 2.80986 1.71258 2.27027 2.24684C1.72785 2.7796 1.2757 3.3954 0.931203 4.07056C0.58576 4.74438 0.346228 5.46643 0.220882 6.21179C0.0943432 6.95621 0.0262517 7.70921 0.0172182 8.46403C0.00667134 8.80896 0.00555756 9.15503 0 9.5V35.5035C0.00555756 35.8528 0.00667134 36.1912 0.0172182 36.5406C0.0262544 37.2954 0.0943459 38.0483 0.220882 38.7927C0.345882 39.5385 0.585428 40.261 0.931203 40.935C1.27554 41.608 1.72775 42.2213 2.27027 42.7511C2.80781 43.2878 3.42892 43.7355 4.10989 44.0772C4.79003 44.4195 5.51829 44.6587 6.27027 44.7868C7.02334 44.9093 7.78462 44.9758 8.54773 44.9857C8.89901 44.9934 9.24418 44.9977 9.59213 44.9977C10.0078 45 10.4196 45 10.8363 45H125.17C125.578 45 125.993 45 126.402 44.9977C126.748 44.9977 127.103 44.9934 127.45 44.9857C128.211 44.9763 128.971 44.9098 129.723 44.7868C130.477 44.6578 131.208 44.4187 131.891 44.0772C132.572 43.7353 133.192 43.2876 133.729 42.7511C134.27 42.2193 134.724 41.6064 135.072 40.935C135.415 40.2605 135.653 39.5381 135.776 38.7927C135.902 38.0482 135.973 37.2954 135.987 36.5406C135.991 36.1912 135.991 35.8528 135.991 35.5035C136 35.0947 136 34.6883 136 34.2729V10.7283C136 10.3163 136 9.90758 135.991 9.5C135.991 9.15503 135.991 8.80896 135.987 8.46399C135.973 7.7091 135.902 6.95626 135.776 6.21175C135.652 5.46682 135.415 4.74482 135.072 4.07052C134.371 2.71723 133.258 1.61567 131.891 0.920753C131.208 0.580158 130.477 0.342416 129.723 0.215381C128.971 0.0913866 128.211 0.0249049 127.45 0.0165262C127.103 0.0110362 126.748 0.00444374 126.402 0.00224999C125.993 0 125.578 0 125.17 0V0.00014625Z" fill="#A6A6A6"/>
<path d="M9.59767 44.016C9.2514 44.016 8.91349 44.0116 8.56994 44.0039C7.85823 43.9948 7.14819 43.9334 6.44563 43.8204C5.79053 43.7088 5.15592 43.501 4.56272 43.2041C3.97496 42.9096 3.43888 42.5234 2.97501 42.0604C2.50442 41.6028 2.11264 41.0721 1.81518 40.4893C1.51445 39.9027 1.30632 39.274 1.19806 38.625C1.08114 37.9276 1.01788 37.2225 1.00883 36.5156C1.00162 36.2784 0.992188 35.4884 0.992188 35.4884V9.50034C0.992188 9.50034 1.00223 8.72251 1.00888 8.49399C1.01755 7.78826 1.08044 7.0842 1.19701 6.38792C1.30548 5.73713 1.51376 5.10657 1.81466 4.51806C2.11102 3.93567 2.50063 3.40457 2.96838 2.94537C3.43561 2.48181 3.9734 2.09366 4.56216 1.7951C5.154 1.49909 5.78741 1.29281 6.44119 1.18317C7.14605 1.06905 7.85856 1.00736 8.57273 0.998599L9.59823 0.984863H126.396L127.434 0.999151C128.142 1.00747 128.848 1.06862 129.546 1.18206C130.206 1.29308 130.847 1.5008 131.445 1.79839C132.625 2.40009 133.584 3.35204 134.19 4.52081C134.486 5.10525 134.691 5.73067 134.798 6.37583C134.916 7.07783 134.982 7.78742 134.996 8.49894C134.999 8.81754 134.999 9.15976 134.999 9.50034C135.008 9.92222 135.008 10.3238 135.008 10.7286V34.2733C135.008 34.682 135.008 35.0808 134.999 35.4829C134.999 35.8487 134.999 36.1839 134.994 36.5288C134.981 37.2276 134.916 37.9245 134.8 38.614C134.694 39.2677 134.487 39.9013 134.186 40.4927C133.887 41.0692 133.497 41.5953 133.032 42.0516C132.568 42.5171 132.031 42.9055 131.442 43.2019C130.845 43.5012 130.206 43.7097 129.546 43.8204C128.844 43.934 128.133 43.9954 127.422 44.0039C127.089 44.0116 126.74 44.016 126.402 44.016L125.17 44.0182L9.59767 44.016Z" fill="black"/>
<path d="M28.6533 22.2162C28.6654 21.2863 28.915 20.3746 29.3787 19.5659C29.8424 18.7572 30.5052 18.0777 31.3055 17.5907C30.7971 16.872 30.1264 16.2805 29.3467 15.8632C28.5669 15.446 27.6997 15.2144 26.8137 15.187C24.9238 14.9906 23.0917 16.3064 22.1287 16.3064C21.147 16.3064 19.6642 15.2065 18.0675 15.239C17.0348 15.272 16.0282 15.5693 15.146 16.1019C14.2638 16.6344 13.5361 17.3841 13.0336 18.2779C10.857 22.0081 12.4805 27.4903 14.5655 30.5055C15.6087 31.982 16.8278 33.6312 18.4231 33.5728C19.9841 33.5087 20.5671 32.5874 22.4514 32.5874C24.3183 32.5874 24.8653 33.5728 26.4929 33.5356C28.1679 33.5087 29.2233 32.0525 30.2299 30.5621C30.9794 29.51 31.5561 28.3473 31.9387 27.117C30.9656 26.7095 30.1351 26.0275 29.5509 25.156C28.9666 24.2846 28.6545 23.2621 28.6533 22.2162Z" fill="white"/>
<path d="M25.5805 13.2041C26.4938 12.1188 26.9438 10.7238 26.8348 9.31543C25.4395 9.4605 24.1506 10.1206 23.2249 11.1643C22.7724 11.6741 22.4257 12.2673 22.2049 12.9098C21.984 13.5523 21.8932 14.2317 21.9378 14.9089C22.6357 14.9161 23.3262 14.7663 23.9571 14.471C24.5881 14.1757 25.1432 13.7425 25.5805 13.2041Z" fill="white"/>
<path d="M48.3882 29.8355H43.061L41.7817 33.5747H39.5254L44.5711 19.7407H46.9154L51.9612 33.5747H49.6663L48.3882 29.8355ZM43.6128 28.1101H47.8354L45.7538 22.0417H45.6955L43.6128 28.1101Z" fill="white"/>
<path d="M62.8569 28.5318C62.8569 31.6661 61.1621 33.6798 58.6046 33.6798C57.9568 33.7134 57.3125 33.5657 56.7455 33.2536C56.1785 32.9415 55.7117 32.4777 55.3987 31.9152H55.3503V36.9109H53.2588V23.4883H55.2833V25.1658H55.3217C55.6492 24.6061 56.1238 24.1446 56.6951 23.8307C57.2664 23.5167 57.913 23.3619 58.5662 23.3827C61.1522 23.3827 62.8569 25.4062 62.8569 28.5318ZM60.7071 28.5318C60.7071 26.4898 59.641 25.1473 58.0144 25.1473C56.4164 25.1473 55.3415 26.5181 55.3415 28.5318C55.3415 30.5641 56.4164 31.925 58.0144 31.925C59.641 31.925 60.7071 30.5923 60.7071 28.5318Z" fill="white"/>
<path d="M74.0727 28.5318C74.0727 31.6661 72.3779 33.6798 69.8204 33.6798C69.1726 33.7134 68.5283 33.5656 67.9613 33.2536C67.3943 32.9415 66.9276 32.4777 66.6145 31.9152H66.5661V36.9109H64.4746V23.4882H66.4991V25.1658H66.5375C66.865 24.606 67.3396 24.1446 67.9109 23.8306C68.4822 23.5167 69.1288 23.3619 69.7819 23.3827C72.368 23.3827 74.0727 25.4062 74.0727 28.5318ZM71.9229 28.5318C71.9229 26.4898 70.8568 25.1473 69.2302 25.1473C67.6322 25.1473 66.5573 26.5181 66.5573 28.5318C66.5573 30.564 67.6322 31.925 69.2302 31.925C70.8568 31.925 71.9229 30.5923 71.9229 28.5318H71.9229Z" fill="white"/>
<path d="M81.4847 29.7199C81.6397 31.0918 82.9861 31.9925 84.8259 31.9925C86.5887 31.9925 87.857 31.0917 87.857 29.8548C87.857 28.781 87.0921 28.138 85.2809 27.6974L83.4696 27.2655C80.9034 26.6519 79.712 25.4639 79.712 23.5361C79.712 21.1493 81.8134 19.5098 84.7973 19.5098C87.7504 19.5098 89.7749 21.1493 89.843 23.5361H87.7317C87.6053 22.1556 86.4524 21.3222 84.7676 21.3222C83.0827 21.3222 81.9298 22.1654 81.9298 23.3925C81.9298 24.3706 82.6662 24.9461 84.4675 25.3866L86.0073 25.7609C88.8747 26.4321 90.0661 27.5723 90.0661 29.5958C90.0661 32.1839 87.9834 33.8049 84.6709 33.8049C81.5715 33.8049 79.4789 32.222 79.3438 29.7198L81.4847 29.7199Z" fill="white"/>
<path d="M94.58 21.1011V23.488H96.5176V25.1274H94.58V30.6878C94.58 31.5516 94.9679 31.9541 95.8197 31.9541C96.0497 31.9501 96.2794 31.9341 96.5077 31.9062V33.5359C96.1248 33.6067 95.7355 33.6388 95.346 33.6316C93.2831 33.6316 92.4786 32.8647 92.4786 30.9086V25.1274H90.9971V23.488H92.4786V21.1011H94.58Z" fill="white"/>
<path d="M97.6396 28.5318C97.6396 25.3584 99.5278 23.3643 102.472 23.3643C105.426 23.3643 107.306 25.3584 107.306 28.5318C107.306 31.714 105.436 33.6994 102.472 33.6994C99.5091 33.6994 97.6396 31.714 97.6396 28.5318ZM105.175 28.5318C105.175 26.3549 104.167 25.0701 102.472 25.0701C100.777 25.0701 99.7707 26.3647 99.7707 28.5318C99.7707 30.7175 100.777 31.9925 102.472 31.9925C104.167 31.9925 105.175 30.7175 105.175 28.5318H105.175Z" fill="white"/>
<path d="M109.031 23.4884H111.026V25.2051H111.074C111.209 24.6689 111.527 24.1951 111.973 23.8633C112.419 23.5314 112.968 23.3618 113.525 23.3829C113.766 23.382 114.007 23.4079 114.242 23.4601V25.3966C113.938 25.3046 113.62 25.2623 113.302 25.2715C112.998 25.2593 112.695 25.3123 112.414 25.4269C112.133 25.5415 111.88 25.715 111.673 25.9355C111.466 26.1559 111.31 26.4181 111.215 26.7041C111.12 26.99 111.088 27.2929 111.123 27.592V33.5744H109.031L109.031 23.4884Z" fill="white"/>
<path d="M123.884 30.6119C123.602 32.4429 121.801 33.6994 119.496 33.6994C116.532 33.6994 114.692 31.7336 114.692 28.5797C114.692 25.4161 116.542 23.3643 119.408 23.3643C122.227 23.3643 124 25.2812 124 28.3393V29.0486H116.804V29.1737C116.77 29.5449 116.817 29.9188 116.941 30.2707C117.065 30.6226 117.264 30.9443 117.523 31.2145C117.782 31.4847 118.096 31.6972 118.445 31.8379C118.794 31.9786 119.169 32.0443 119.545 32.0306C120.039 32.0764 120.535 31.9631 120.959 31.7075C121.383 31.4519 121.712 31.0677 121.898 30.6119L123.884 30.6119ZM116.814 27.6017H121.908C121.926 27.2679 121.875 26.9339 121.758 26.6207C121.64 26.3074 121.458 26.0216 121.223 25.7812C120.988 25.5409 120.706 25.3511 120.394 25.2239C120.082 25.0966 119.746 25.0346 119.408 25.0418C119.068 25.0398 118.73 25.1046 118.415 25.2324C118.1 25.3602 117.813 25.5486 117.572 25.7866C117.331 26.0246 117.14 26.3075 117.009 26.619C116.879 26.9306 116.813 27.2645 116.814 27.6017V27.6017Z" fill="white"/>
<path d="M43.3465 9.32737C43.785 9.29622 44.225 9.36179 44.6348 9.51935C45.0446 9.67691 45.4139 9.92253 45.7162 10.2385C46.0185 10.5545 46.2461 10.9329 46.3827 11.3465C46.5194 11.7601 46.5616 12.1986 46.5063 12.6303C46.5063 14.7539 45.3468 15.9746 43.3465 15.9746H40.9209V9.32737H43.3465ZM41.9639 15.0345H43.23C43.5433 15.0531 43.8569 15.0022 44.1479 14.8857C44.4388 14.7691 44.6999 14.5898 44.912 14.3608C45.1241 14.1318 45.282 13.8589 45.3742 13.5618C45.4663 13.2648 45.4903 12.9512 45.4446 12.6438C45.487 12.3376 45.4605 12.026 45.367 11.7311C45.2734 11.4363 45.1152 11.1656 44.9035 10.9384C44.6919 10.7112 44.4321 10.5332 44.1427 10.4171C43.8534 10.3009 43.5417 10.2496 43.23 10.2667H41.9639V15.0345Z" fill="white"/>
<path d="M47.6842 13.4641C47.6523 13.1344 47.6904 12.8018 47.796 12.4876C47.9016 12.1734 48.0724 11.8845 48.2974 11.6394C48.5224 11.3943 48.7967 11.1985 49.1027 11.0645C49.4086 10.9305 49.7395 10.8613 50.074 10.8613C50.4086 10.8613 50.7395 10.9305 51.0454 11.0645C51.3514 11.1985 51.6256 11.3943 51.8507 11.6394C52.0757 11.8845 52.2465 12.1734 52.3521 12.4876C52.4577 12.8018 52.4958 13.1344 52.4639 13.4641C52.4964 13.7941 52.4588 14.1272 52.3534 14.4419C52.2481 14.7567 52.0774 15.0461 51.8523 15.2917C51.6272 15.5372 51.3528 15.7334 51.0465 15.8677C50.7403 16.002 50.409 16.0713 50.074 16.0713C49.7391 16.0713 49.4078 16.002 49.1016 15.8677C48.7953 15.7334 48.5208 15.5372 48.2958 15.2917C48.0707 15.0461 47.9 14.7567 47.7947 14.4419C47.6893 14.1272 47.6517 13.7941 47.6842 13.4641ZM51.4352 13.4641C51.4352 12.3767 50.9417 11.7409 50.0757 11.7409C49.2063 11.7409 48.7173 12.3767 48.7173 13.4641C48.7173 14.5602 49.2064 15.1912 50.0757 15.1912C50.9418 15.1912 51.4352 14.5558 51.4352 13.4641H51.4352Z" fill="white"/>
<path d="M58.8181 15.9746H57.7806L56.7332 12.2801H56.654L55.611 15.9746H54.5834L53.1865 10.9583H54.201L55.1088 14.786H55.1835L56.2254 10.9583H57.1849L58.2268 14.786H58.3059L59.2093 10.9583H60.2095L58.8181 15.9746Z" fill="white"/>
<path d="M61.3828 10.9582H62.3456V11.7551H62.4203C62.5471 11.4689 62.7609 11.229 63.032 11.0688C63.3031 10.9086 63.6179 10.8361 63.9326 10.8614C64.1792 10.843 64.4268 10.8798 64.6571 10.9691C64.8873 11.0583 65.0943 11.1977 65.2628 11.3768C65.4313 11.556 65.5568 11.7704 65.6302 12.0042C65.7036 12.2379 65.7229 12.485 65.6867 12.7272V15.9745H64.6866V12.9758C64.6866 12.1696 64.3327 11.7687 63.593 11.7687C63.4256 11.761 63.2585 11.7892 63.1031 11.8514C62.9477 11.9136 62.8078 12.0083 62.6928 12.1291C62.5779 12.2498 62.4907 12.3937 62.4372 12.5509C62.3837 12.7082 62.3652 12.875 62.3829 13.0399V15.9746H61.3828L61.3828 10.9582Z" fill="white"/>
<path d="M67.2822 9H68.2824V15.9746H67.2822V9Z" fill="white"/>
<path d="M69.6724 13.4642C69.6406 13.1345 69.6787 12.8019 69.7843 12.4876C69.89 12.1734 70.0608 11.8845 70.2858 11.6394C70.5109 11.3943 70.7852 11.1985 71.0912 11.0645C71.3971 10.9305 71.728 10.8613 72.0626 10.8613C72.3972 10.8613 72.728 10.9305 73.034 11.0645C73.34 11.1985 73.6143 11.3943 73.8393 11.6394C74.0644 11.8845 74.2352 12.1734 74.3408 12.4876C74.4465 12.8019 74.4846 13.1345 74.4527 13.4642C74.4852 13.7942 74.4475 14.1273 74.3421 14.442C74.2368 14.7568 74.066 15.0462 73.8409 15.2917C73.6158 15.5373 73.3413 15.7335 73.0351 15.8678C72.7288 16.002 72.3975 16.0714 72.0626 16.0714C71.7276 16.0714 71.3964 16.002 71.0901 15.8678C70.7838 15.7335 70.5093 15.5373 70.2842 15.2917C70.0591 15.0462 69.8884 14.7568 69.783 14.442C69.6777 14.1273 69.64 13.7942 69.6724 13.4642ZM73.4235 13.4642C73.4235 12.3768 72.93 11.741 72.0639 11.741C71.1946 11.741 70.7056 12.3768 70.7056 13.4642C70.7056 14.5603 71.1946 15.1913 72.0639 15.1913C72.93 15.1913 73.4235 14.5559 73.4235 13.4642H73.4235Z" fill="white"/>
<path d="M75.5049 14.5559C75.5049 13.6529 76.1841 13.1323 77.3898 13.0584L78.7625 12.98V12.547C78.7625 12.0172 78.4086 11.7181 77.725 11.7181C77.1667 11.7181 76.7798 11.921 76.6688 12.2756H75.7005C75.8027 11.414 76.6215 10.8613 77.7711 10.8613C79.0416 10.8613 79.7582 11.4874 79.7582 12.547V15.9745H78.7954V15.2696H78.7163C78.5557 15.5224 78.3302 15.7286 78.0627 15.867C77.7953 16.0053 77.4956 16.071 77.1941 16.0572C76.9814 16.0791 76.7664 16.0566 76.5629 15.9912C76.3595 15.9258 76.1722 15.819 76.013 15.6775C75.8539 15.5361 75.7264 15.3632 75.6389 15.17C75.5514 14.9768 75.5057 14.7676 75.5049 14.5559ZM78.7625 14.1272V13.7078L77.5249 13.7862C76.827 13.8324 76.5105 14.0674 76.5105 14.5096C76.5105 14.9611 76.9062 15.2238 77.4502 15.2238C77.6097 15.2398 77.7707 15.2239 77.9237 15.177C78.0768 15.1301 78.2188 15.0532 78.3412 14.9509C78.4636 14.8486 78.564 14.7229 78.6364 14.5814C78.7088 14.4399 78.7516 14.2855 78.7625 14.1272Z" fill="white"/>
<path d="M81.0723 13.4643C81.0723 11.8792 81.8955 10.875 83.1759 10.875C83.4926 10.8606 83.8069 10.9357 84.0821 11.0915C84.3573 11.2474 84.582 11.4775 84.7299 11.7551H84.8047V9H85.8048V15.9746H84.8464V15.1821H84.7673C84.6079 15.4578 84.3754 15.6851 84.0949 15.8393C83.8144 15.9936 83.4965 16.069 83.1759 16.0573C81.8867 16.0573 81.0723 15.0532 81.0723 13.4643ZM82.1054 13.4643C82.1054 14.5283 82.6121 15.1685 83.4595 15.1685C84.3024 15.1685 84.8234 14.519 84.8234 13.4686C84.8234 12.4231 84.2969 11.7644 83.4595 11.7644C82.6175 11.7644 82.1054 12.409 82.1054 13.4643H82.1054Z" fill="white"/>
<path d="M89.9429 13.4641C89.9111 13.1344 89.9492 12.8018 90.0548 12.4876C90.1604 12.1734 90.3312 11.8845 90.5562 11.6394C90.7812 11.3943 91.0555 11.1985 91.3615 11.0645C91.6674 10.9305 91.9983 10.8613 92.3328 10.8613C92.6674 10.8613 92.9983 10.9305 93.3042 11.0645C93.6102 11.1985 93.8844 11.3943 94.1094 11.6394C94.3345 11.8845 94.5053 12.1734 94.6109 12.4876C94.7165 12.8018 94.7546 13.1344 94.7227 13.4641C94.7552 13.7941 94.7175 14.1272 94.6122 14.4419C94.5069 14.7567 94.3362 15.0461 94.1111 15.2917C93.886 15.5372 93.6115 15.7334 93.3053 15.8677C92.999 16.002 92.6678 16.0713 92.3328 16.0713C91.9979 16.0713 91.6666 16.002 91.3604 15.8677C91.0541 15.7334 90.7796 15.5372 90.5546 15.2917C90.3295 15.0461 90.1588 14.7567 90.0535 14.4419C89.9481 14.1272 89.9105 13.7941 89.9429 13.4641ZM93.694 13.4641C93.694 12.3767 93.2005 11.7409 92.3345 11.7409C91.4651 11.7409 90.9761 12.3767 90.9761 13.4641C90.9761 14.5602 91.4652 15.1912 92.3345 15.1912C93.2005 15.1912 93.694 14.5558 93.694 13.4641Z" fill="white"/>
<path d="M96.0645 10.9582H97.0272V11.7551H97.102C97.2288 11.4689 97.4426 11.229 97.7137 11.0688C97.9848 10.9086 98.2996 10.8361 98.6143 10.8614C98.8608 10.843 99.1084 10.8798 99.3387 10.9691C99.569 11.0583 99.776 11.1977 99.9444 11.3768C100.113 11.556 100.238 11.7704 100.312 12.0042C100.385 12.2379 100.405 12.485 100.368 12.7272V15.9745H99.3682V12.9758C99.3682 12.1696 99.0143 11.7687 98.2747 11.7687C98.1072 11.761 97.9401 11.7892 97.7847 11.8514C97.6294 11.9136 97.4894 12.0083 97.3745 12.1291C97.2595 12.2498 97.1723 12.3937 97.1189 12.5509C97.0654 12.7082 97.0469 12.875 97.0646 13.0399V15.9746H96.0645V10.9582Z" fill="white"/>
<path d="M106.02 9.70947V10.9812H107.118V11.8151H106.02V14.3946C106.02 14.92 106.238 15.1501 106.736 15.1501C106.864 15.1497 106.991 15.1421 107.118 15.1273V15.9519C106.938 15.9837 106.756 16.0006 106.574 16.0025C105.461 16.0025 105.018 15.6152 105.018 14.6481V11.8151H104.214V10.9812H105.018V9.70947H106.02Z" fill="white"/>
<path d="M108.484 9H109.476V11.7644H109.555C109.688 11.4755 109.908 11.2342 110.184 11.0734C110.461 10.9126 110.78 10.8401 111.1 10.8658C111.345 10.8526 111.591 10.8931 111.818 10.9845C112.046 11.0759 112.25 11.2159 112.417 11.3945C112.584 11.5731 112.709 11.786 112.783 12.0178C112.857 12.2497 112.878 12.4949 112.845 12.7359V15.9746H111.844V12.9801C111.844 12.1789 111.467 11.7731 110.761 11.7731C110.589 11.7591 110.416 11.7825 110.254 11.8416C110.092 11.9007 109.945 11.9941 109.824 12.1153C109.702 12.2364 109.609 12.3823 109.55 12.5429C109.492 12.7035 109.469 12.8748 109.485 13.0449V15.9746H108.484L108.484 9Z" fill="white"/>
<path d="M118.679 14.6202C118.543 15.0786 118.248 15.4752 117.847 15.7405C117.445 16.0058 116.963 16.1229 116.483 16.0714C116.149 16.0801 115.817 16.0168 115.51 15.8859C115.204 15.755 114.929 15.5596 114.707 15.3132C114.484 15.0669 114.318 14.7755 114.221 14.4593C114.123 14.1431 114.096 13.8097 114.142 13.4822C114.097 13.1537 114.125 12.8196 114.222 12.5024C114.319 12.1853 114.484 11.8926 114.706 11.6441C114.927 11.3955 115.2 11.1971 115.506 11.062C115.812 10.927 116.143 10.8586 116.478 10.8614C117.888 10.8614 118.739 11.815 118.739 13.3902V13.7357H115.161V13.7912C115.145 13.9753 115.168 14.1606 115.229 14.3352C115.29 14.5098 115.387 14.6699 115.514 14.8052C115.641 14.9405 115.796 15.048 115.967 15.1209C116.139 15.1937 116.324 15.2303 116.51 15.2283C116.749 15.2567 116.992 15.2141 117.206 15.1058C117.421 14.9975 117.598 14.8284 117.716 14.6201L118.679 14.6202ZM115.161 13.0035H117.72C117.733 12.8352 117.71 12.666 117.652 12.5071C117.595 12.3481 117.505 12.2027 117.387 12.0803C117.27 11.9579 117.128 11.8612 116.97 11.7964C116.813 11.7316 116.643 11.7001 116.473 11.704C116.3 11.7019 116.128 11.734 115.968 11.7986C115.808 11.8631 115.662 11.9588 115.54 12.0799C115.418 12.201 115.321 12.3451 115.256 12.5037C115.191 12.6624 115.158 12.8323 115.161 13.0035H115.161Z" fill="white"/>
</svg>
