<?xml version="1.0" encoding="UTF-8"?>
<svg width="80px" height="80px" viewBox="0 0 80 80" version="1.1" xmlns="http://www.w3.org/2000/svg" xmlns:xlink="http://www.w3.org/1999/xlink">
    <title>icon-pens</title>
    <defs>
        <circle id="path-1" cx="40" cy="40" r="40"></circle>
    </defs>
    <g id="Page-1" stroke="none" stroke-width="1" fill="none" fill-rule="evenodd">
        <g id="icon-pens">
            <g id="Oval" opacity="0.200000003">
                <g id="path-1-Clipped">
                    <g>
                        <mask id="mask-2" fill="white">
                            <use xlink:href="#path-1"></use>
                        </mask>
                        <g id="path-1"></g>
                        <circle id="path-1" stroke="#4D5767" stroke-width="4" mask="url(#mask-2)" cx="40" cy="40" r="40"></circle>
                    </g>
                </g>
            </g>
            <path d="M24,40 C24,31.163444 31.1615011,24 40,24 C48.836556,24 56,31.1615011 56,40 C56,48.836556 48.8384989,56 40,56 C31.163444,56 24,48.8384989 24,40 Z M45.0724562,38.4495252 L38.2460623,34.0838082 C37.3124486,33.4867296 36.562963,33.9066283 36.562963,35.0158734 L36.562963,44.0359784 C36.562963,45.1483561 37.3165122,45.5625234 38.2460623,44.9680437 L45.0724562,40.6023267 C46.0060699,40.0052482 46.0020063,39.0440049 45.0724562,38.4495252 Z" id="Play-Icon" fill="#DA3E40" fill-rule="nonzero"></path>
        </g>
    </g>
</svg>
