<svg width="26" height="28" viewBox="0 0 26 28" fill="none" xmlns="http://www.w3.org/2000/svg">
<g opacity="0.8">
<path fill-rule="evenodd" clip-rule="evenodd" d="M14.4 7.2C14.4 3.2232 11.1744 0 7.2 0C3.2232 0 0 3.2232 0 7.2C0 10.5528 2.2956 13.3632 5.4 14.1636V15.6H9V14.1636C12.102 13.3632 14.4 10.5528 14.4 7.2V7.2Z" transform="translate(5.7998 5.79999)" stroke="white" stroke-width="1.5" stroke-linecap="round" stroke-linejoin="round"/>
<path d="M1.2 0H0" transform="translate(12.3999 26.2)" stroke="white" stroke-width="1.5" stroke-linecap="round" stroke-linejoin="round"/>
<path d="M3.6 0H0" transform="translate(11.2 23.8)" stroke="white" stroke-width="1.5" stroke-linecap="round" stroke-linejoin="round"/>
<path d="M0 0V2.4" transform="translate(13 1)" stroke="white" stroke-width="1.5" stroke-linecap="round" stroke-linejoin="round"/>
<path d="M2.4 0H0" transform="translate(22.6001 13)" stroke="white" stroke-width="1.5" stroke-linecap="round" stroke-linejoin="round"/>
<path d="M0 0H2.4" transform="translate(1 13)" stroke="white" stroke-width="1.5" stroke-linecap="round" stroke-linejoin="round"/>
<path d="M0 0L2.5464 2.5464" transform="translate(3.66479 3.66602)" stroke="white" stroke-width="1.5" stroke-linecap="round" stroke-linejoin="round"/>
<path d="M2.5464 0L0 2.5464" transform="translate(19.7861 3.66602)" stroke="white" stroke-width="1.5" stroke-linecap="round" stroke-linejoin="round"/>
</g>
</svg>
