<svg width="136" height="45" viewBox="0 0 136 45" fill="none" xmlns="http://www.w3.org/2000/svg">
<path d="M130.963 45H5.03704C2.2163 45 0 42.525 0 39.375V5.625C0 2.475 2.2163 0 5.03704 0H130.963C133.784 0 136 2.475 136 5.625V39.375C136 42.4125 133.784 45 130.963 45Z" fill="black"/>
<path d="M130.963 0.9C133.28 0.9 135.194 3.0375 135.194 5.625V39.375C135.194 41.9625 133.28 44.1 130.963 44.1H5.03704C2.72 44.1 0.805926 41.9625 0.805926 39.375V5.625C0.805926 3.0375 2.72 0.9 5.03704 0.9H130.963ZM130.963 0H5.03704C2.2163 0 0 2.475 0 5.625V39.375C0 42.525 2.2163 45 5.03704 45H130.963C133.784 45 136 42.525 136 39.375V5.625C136 2.5875 133.784 0 130.963 0Z" fill="#A6A6A6"/>
<path d="M48.27 12.1922C48.27 12.966 48.0766 13.643 47.593 14.1266C47.0126 14.707 46.3356 14.9971 45.4651 14.9971C44.5946 14.9971 43.9176 14.707 43.3373 14.1266C42.757 13.5463 42.4668 12.8693 42.4668 11.9988C42.4668 11.1283 42.757 10.4513 43.3373 9.87097C43.9176 9.29065 44.5946 9.00049 45.4651 9.00049C45.852 9.00049 46.2389 9.09721 46.6258 9.29065C47.0126 9.48409 47.3028 9.67753 47.4962 9.96769L47.0126 10.4513C46.6258 9.96769 46.1422 9.77425 45.4651 9.77425C44.8848 9.77425 44.3045 9.96769 43.9176 10.4513C43.434 10.8382 43.2406 11.4185 43.2406 12.0955C43.2406 12.7726 43.434 13.3529 43.9176 13.7398C44.4012 14.1266 44.8848 14.4168 45.4651 14.4168C46.1422 14.4168 46.6258 14.2234 47.1094 13.7398C47.3995 13.4496 47.593 13.0627 47.593 12.5791H45.4651V11.9021H48.27C48.27 11.9021 48.27 12.0955 48.27 12.1922Z" fill="white" stroke="white" stroke-width="0.281869" stroke-miterlimit="10"/>
<path d="M52.7192 9.77396H50.1077V11.6116H52.5257V12.2887H50.1077V14.1264H52.7192V14.9001H49.334V9.09692H52.7192V9.77396Z" fill="white" stroke="white" stroke-width="0.281869" stroke-miterlimit="10"/>
<path d="M55.9102 14.9001H55.1364V9.77396H53.4922V9.09692H57.5544V9.77396H55.9102V14.9001Z" fill="white" stroke="white" stroke-width="0.281869" stroke-miterlimit="10"/>
<path d="M60.3594 14.9001V9.09692H61.1331V14.9001H60.3594Z" fill="white" stroke="white" stroke-width="0.281869" stroke-miterlimit="10"/>
<path d="M64.4219 14.9001H63.6482V9.77396H62.0039V9.09692H65.9694V9.77396H64.3252V14.9001H64.4219Z" fill="white" stroke="white" stroke-width="0.281869" stroke-miterlimit="10"/>
<path d="M73.6105 14.1262C73.0302 14.7065 72.3532 14.9966 71.4827 14.9966C70.6122 14.9966 69.9352 14.7065 69.3548 14.1262C68.7745 13.5458 68.4844 12.8688 68.4844 11.9983C68.4844 11.1278 68.7745 10.4508 69.3548 9.87048C69.9352 9.29016 70.6122 9 71.4827 9C72.3532 9 73.0302 9.29016 73.6105 9.87048C74.1908 10.4508 74.481 11.1278 74.481 11.9983C74.481 12.8688 74.1908 13.5458 73.6105 14.1262ZM69.9352 13.6426C70.3221 14.0294 70.9024 14.3196 71.4827 14.3196C72.063 14.3196 72.6433 14.1262 73.0302 13.6426C73.4171 13.2557 73.7072 12.6754 73.7072 11.9983C73.7072 11.3213 73.5138 10.741 73.0302 10.3541C72.6433 9.9672 72.063 9.67704 71.4827 9.67704C70.9024 9.67704 70.3221 9.87048 69.9352 10.3541C69.5483 10.741 69.2581 11.3213 69.2581 11.9983C69.2581 12.6754 69.4516 13.2557 69.9352 13.6426Z" fill="white" stroke="white" stroke-width="0.281869" stroke-miterlimit="10"/>
<path d="M75.543 14.9001V9.09692H76.4135L79.2183 13.6428V12.4821V9.09692H79.9921V14.9001H79.2183L76.22 10.1608V11.3215V14.9001H75.543Z" fill="white" stroke="white" stroke-width="0.281869" stroke-miterlimit="10"/>
<path d="M68.2882 23.4118C65.9669 23.4118 64.1293 25.1528 64.1293 27.5708C64.1293 29.892 65.9669 31.7297 68.2882 31.7297C70.6095 31.7297 72.4472 29.9888 72.4472 27.5708C72.4472 25.056 70.6095 23.4118 68.2882 23.4118ZM68.2882 29.9888C67.0309 29.9888 65.9669 28.9248 65.9669 27.474C65.9669 26.0232 67.0309 24.9593 68.2882 24.9593C69.5456 24.9593 70.6095 25.9265 70.6095 27.474C70.6095 28.9248 69.5456 29.9888 68.2882 29.9888ZM59.2933 23.4118C56.972 23.4118 55.1343 25.1528 55.1343 27.5708C55.1343 29.892 56.972 31.7297 59.2933 31.7297C61.6145 31.7297 63.4522 29.9888 63.4522 27.5708C63.4522 25.056 61.6145 23.4118 59.2933 23.4118ZM59.2933 29.9888C58.0359 29.9888 56.972 28.9248 56.972 27.474C56.972 26.0232 58.0359 24.9593 59.2933 24.9593C60.5506 24.9593 61.6145 25.9265 61.6145 27.474C61.6145 28.9248 60.5506 29.9888 59.2933 29.9888ZM48.5573 24.6692V26.4101H52.7163C52.6196 27.3773 52.2327 28.1511 51.7491 28.6347C51.1688 29.215 50.2016 29.892 48.5573 29.892C45.9459 29.892 44.0115 27.8609 44.0115 25.2495C44.0115 22.638 46.0426 20.6069 48.5573 20.6069C49.9114 20.6069 50.9753 21.1872 51.7491 21.8643L53.0065 20.6069C51.9425 19.6397 50.5885 18.866 48.6541 18.866C45.1721 18.866 42.1738 21.7676 42.1738 25.2495C42.1738 28.7314 45.1721 31.633 48.6541 31.633C50.5885 31.633 51.9425 31.0527 53.1032 29.7953C54.2638 28.6347 54.6507 26.9904 54.6507 25.7331C54.6507 25.3462 54.6507 24.9593 54.554 24.6692H48.5573ZM92.4682 26.0232C92.0813 25.056 91.1141 23.4118 88.9863 23.4118C86.8585 23.4118 85.1175 25.056 85.1175 27.5708C85.1175 29.892 86.8585 31.7297 89.1797 31.7297C91.0174 31.7297 92.1781 30.5691 92.5649 29.892L91.2109 28.9248C90.7273 29.6019 90.1469 30.0855 89.1797 30.0855C88.2125 30.0855 87.6322 29.6986 87.1486 28.8281L92.6617 26.5068L92.4682 26.0232ZM86.8585 27.3773C86.8585 25.8298 88.1158 24.9593 88.9863 24.9593C89.6633 24.9593 90.3404 25.3462 90.5338 25.8298L86.8585 27.3773ZM82.3126 31.3428H84.1503V19.2528H82.3126V31.3428ZM79.411 24.2823C78.9274 23.7987 78.1537 23.3151 77.1865 23.3151C75.1553 23.3151 73.2209 25.1528 73.2209 27.474C73.2209 29.7953 75.0586 31.5363 77.1865 31.5363C78.1537 31.5363 78.9274 31.0527 79.3143 30.5691H79.411V31.1494C79.411 32.6969 78.5405 33.5674 77.1865 33.5674C76.1225 33.5674 75.3488 32.7936 75.1553 32.1166L73.6078 32.7936C74.0914 33.8576 75.2521 35.2116 77.2832 35.2116C79.411 35.2116 81.152 33.9543 81.152 30.956V23.6052H79.411V24.2823ZM77.2832 29.9888C76.0258 29.9888 74.9619 28.9248 74.9619 27.474C74.9619 26.0232 76.0258 24.9593 77.2832 24.9593C78.5405 24.9593 79.5077 26.0232 79.5077 27.474C79.5077 28.9248 78.5405 29.9888 77.2832 29.9888ZM100.883 19.2528H96.5305V31.3428H98.3681V26.797H100.883C102.914 26.797 104.848 25.3462 104.848 23.0249C104.848 20.7036 102.914 19.2528 100.883 19.2528ZM100.98 25.056H98.3681V20.8971H100.98C102.334 20.8971 103.107 22.0577 103.107 22.9282C103.011 23.9921 102.237 25.056 100.98 25.056ZM112.102 23.3151C110.748 23.3151 109.394 23.8954 108.911 25.1528L110.555 25.8298C110.942 25.1528 111.522 24.9593 112.199 24.9593C113.166 24.9593 114.037 25.5396 114.133 26.5068V26.6036C113.843 26.4101 113.07 26.12 112.296 26.12C110.555 26.12 108.814 27.0872 108.814 28.8281C108.814 30.4724 110.265 31.5363 111.812 31.5363C113.07 31.5363 113.65 30.956 114.133 30.3756H114.23V31.3428H115.971V26.7003C115.778 24.5724 114.133 23.3151 112.102 23.3151ZM111.909 29.9888C111.329 29.9888 110.458 29.6986 110.458 28.9248C110.458 27.9576 111.522 27.6675 112.393 27.6675C113.166 27.6675 113.553 27.8609 114.037 28.0544C113.843 29.215 112.876 29.9888 111.909 29.9888ZM122.065 23.6052L120.033 28.8281H119.937L117.809 23.6052H115.874L119.066 30.956L117.229 35.0182H119.066L123.999 23.6052H122.065ZM105.816 31.3428H107.653V19.2528H105.816V31.3428Z" fill="white"/>
<path d="M12.4836 9.58057C12.1934 9.87073 12 10.3543 12 10.9346V32.3098C12 32.8901 12.1934 33.3737 12.4836 33.6638L12.5803 33.7606L24.5736 21.7673V21.6706V21.5738L12.4836 9.58057Z" fill="url(#paint0_linear)"/>
<path d="M28.5397 25.8294L24.5742 21.8638V21.6704V21.5737L28.5397 17.6082L28.6365 17.7049L33.3757 20.413C34.7298 21.1868 34.7298 22.4442 33.3757 23.2179L28.5397 25.8294Z" fill="url(#paint1_linear)"/>
<path d="M28.6347 25.7327L24.5724 21.6704L12.4824 33.7604C12.966 34.244 13.6431 34.244 14.5135 33.8571L28.6347 25.7327Z" fill="url(#paint2_linear)"/>
<path d="M28.6347 17.6084L14.5135 9.58064C13.6431 9.09704 12.966 9.19376 12.4824 9.67736L24.5724 21.6706L28.6347 17.6084Z" fill="url(#paint3_linear)"/>
<path opacity="0.2" d="M28.5379 25.6362L14.5135 33.5673C13.7398 34.0509 13.0627 33.9541 12.5791 33.5673L12.4824 33.664L12.5791 33.7607C13.0627 34.1476 13.7398 34.2443 14.5135 33.7607L28.5379 25.6362Z" fill="black"/>
<path opacity="0.12" d="M12.4826 33.567C12.1924 33.2768 12.0957 32.7932 12.0957 32.2129V32.3096C12.0957 32.8899 12.2891 33.3735 12.5793 33.6637V33.567H12.4826Z" fill="black"/>
<path opacity="0.12" d="M33.3751 22.9278L28.5391 25.6359L28.6358 25.7327L33.3751 23.0245C34.0521 22.6376 34.3423 22.154 34.3423 21.6704C34.3423 22.154 33.9554 22.5409 33.3751 22.9278Z" fill="black"/>
<path opacity="0.25" d="M14.5157 9.67725L33.3761 20.4132C33.9564 20.8 34.3433 21.1869 34.3433 21.6705C34.3433 21.1869 34.0531 20.7033 33.3761 20.3164L14.5157 9.58053C13.1616 8.80677 12.0977 9.48381 12.0977 11.0313V11.128C12.0977 9.58053 13.1616 8.90349 14.5157 9.67725Z" fill="white"/>
<defs>
<linearGradient id="paint0_linear" x1="23.5094" y1="10.7506" x2="7.27746" y2="26.9825" gradientUnits="userSpaceOnUse">
<stop stop-color="#00A0FF"/>
<stop offset="0.00657445" stop-color="#00A1FF"/>
<stop offset="0.2601" stop-color="#00BEFF"/>
<stop offset="0.5122" stop-color="#00D2FF"/>
<stop offset="0.7604" stop-color="#00DFFF"/>
<stop offset="1" stop-color="#00E3FF"/>
</linearGradient>
<linearGradient id="paint1_linear" x1="35.15" y1="21.6717" x2="11.7467" y2="21.6717" gradientUnits="userSpaceOnUse">
<stop stop-color="#FFE000"/>
<stop offset="0.4087" stop-color="#FFBD00"/>
<stop offset="0.7754" stop-color="#FFA500"/>
<stop offset="1" stop-color="#FF9C00"/>
</linearGradient>
<linearGradient id="paint2_linear" x1="26.4362" y1="23.8912" x2="4.42439" y2="45.903" gradientUnits="userSpaceOnUse">
<stop stop-color="#FF3A44"/>
<stop offset="1" stop-color="#C31162"/>
</linearGradient>
<linearGradient id="paint3_linear" x1="9.48149" y1="2.49706" x2="19.3108" y2="12.3262" gradientUnits="userSpaceOnUse">
<stop stop-color="#32A071"/>
<stop offset="0.0685" stop-color="#2DA771"/>
<stop offset="0.4762" stop-color="#15CF74"/>
<stop offset="0.8009" stop-color="#06E775"/>
<stop offset="1" stop-color="#00F076"/>
</linearGradient>
</defs>
</svg>
